<svg width="16" height="16" viewBox="0 0 8 8" fill="none" xmlns="http://www.w3.org/2000/svg">
<g clip-path="url(#clip0_1_162)">
<path d="M3.97528 2.14366C3.04962 2.14366 2.30298 2.88645 2.30298 3.80735C2.30298 4.72824 3.04962 5.47103 3.97528 5.47103C4.90094 5.47103 5.64758 4.72824 5.64758 3.80735C5.64758 2.88645 4.90094 2.14366 3.97528 2.14366ZM3.97528 4.88896C3.37709 4.88896 2.88806 4.4039 2.88806 3.80735C2.88806 3.21079 3.37564 2.72573 3.97528 2.72573C4.57492 2.72573 5.0625 3.21079 5.0625 3.80735C5.0625 4.4039 4.57347 4.88896 3.97528 4.88896ZM6.10605 2.07561C6.10605 2.29135 5.9314 2.46365 5.71599 2.46365C5.49913 2.46365 5.32593 2.2899 5.32593 2.07561C5.32593 1.86131 5.50058 1.68756 5.71599 1.68756C5.9314 1.68756 6.10605 1.86131 6.10605 2.07561ZM7.21364 2.46945C7.1889 1.94963 7.06955 1.48919 6.68677 1.10983C6.30544 0.730466 5.84261 0.611734 5.32011 0.585671C4.7816 0.555265 3.16751 0.555265 2.62899 0.585671C2.10795 0.610286 1.64512 0.729018 1.26233 1.10838C0.879552 1.48774 0.761661 1.94819 0.735463 2.468C0.704899 3.00374 0.704899 4.60951 0.735463 5.14525C0.760205 5.66506 0.879552 6.1255 1.26233 6.50486C1.64512 6.88423 2.10649 7.00296 2.62899 7.02902C3.16751 7.05943 4.7816 7.05943 5.32011 7.02902C5.84261 7.00441 6.30544 6.88567 6.68677 6.50486C7.0681 6.1255 7.18744 5.66506 7.21364 5.14525C7.24421 4.60951 7.24421 3.00519 7.21364 2.46945ZM6.51794 5.72008C6.40441 6.00388 6.18464 6.22252 5.89792 6.3369C5.46856 6.50631 4.44975 6.46722 3.97528 6.46722C3.50081 6.46722 2.48054 6.50486 2.05264 6.3369C1.76737 6.22396 1.5476 6.00532 1.43262 5.72008C1.26233 5.29294 1.30163 4.27938 1.30163 3.80735C1.30163 3.33532 1.26379 2.32031 1.43262 1.89461C1.54614 1.61082 1.76592 1.39218 2.05264 1.27779C2.48199 1.10838 3.50081 1.14747 3.97528 1.14747C4.44975 1.14747 5.47002 1.10983 5.89792 1.27779C6.18319 1.39073 6.40296 1.60937 6.51794 1.89461C6.68823 2.32176 6.64893 3.33532 6.64893 3.80735C6.64893 4.27938 6.68823 5.29438 6.51794 5.72008Z" fill="white"/>
</g>
<defs>
<clipPath id="clip0_1_162">
<rect width="6.58976" height="7.41348" fill="white" transform="translate(0.731049 0.101807)"/>
</clipPath>
</defs>
</svg>
