<svg width="16" height="16" viewBox="0 0 9 7" fill="none" xmlns="http://www.w3.org/2000/svg">
<g clip-path="url(#clip0_1_152)">
<path d="M8.10317 1.62818C7.82848 1.74535 7.53713 1.82225 7.23879 1.85634C7.54954 1.67702 7.78815 1.39305 7.9005 1.0547C7.60509 1.22348 7.28189 1.3424 6.94486 1.40632C6.67032 1.12472 6.27922 0.94873 5.84635 0.94873C5.01521 0.94873 4.34135 1.59751 4.34135 2.39769C4.34135 2.51127 4.35467 2.62185 4.38032 2.72792C3.12957 2.66748 2.02066 2.09063 1.27837 1.21397C1.14886 1.42797 1.07464 1.67691 1.07464 1.94242C1.07464 2.44514 1.34035 2.88863 1.74415 3.14849C1.50516 3.14128 1.27143 3.07913 1.06247 2.96723C1.06238 2.9733 1.06238 2.97937 1.06238 2.98546C1.06238 3.68751 1.58113 4.27317 2.26958 4.40628C2.04796 4.46431 1.8155 4.4728 1.58996 4.43111C1.78145 5.00678 2.33726 5.42568 2.99578 5.43741C2.48073 5.82602 1.8318 6.05768 1.12674 6.05768C1.00524 6.05768 0.88547 6.05082 0.767731 6.03743C1.43374 6.44856 2.22479 6.68844 3.07467 6.68844C5.84285 6.68844 7.35656 4.4805 7.35656 2.56573C7.35656 2.50288 7.35513 2.4404 7.3522 2.37827C7.64683 2.17319 7.90113 1.91919 8.10317 1.62818Z" fill="white"/>
</g>
<defs>
<clipPath id="clip0_1_152">
<rect width="7.41348" height="5.76604" fill="white" transform="translate(0.780685 0.925903)"/>
</clipPath>
</defs>
</svg>
